<svg width="606" height="149" viewBox="0 0 606 149" fill="none" xmlns="http://www.w3.org/2000/svg">
<path fill-rule="evenodd" clip-rule="evenodd" d="M564.081 8.59292C565.308 11.0343 566.704 13.8111 571.278 16.8055V16.7972C576.01 19.8973 580.355 20.7127 584.507 21.4917C589.516 22.4317 594.243 23.3187 599.027 28.1023C605.719 34.7867 605.727 40.7146 605.727 51.5263V97.9881C605.727 114.202 600.605 126.723 590.377 135.554C580.133 144.384 560.244 148.807 540.364 148.807H540.347C520.475 148.807 500.57 144.384 490.35 135.554C480.114 126.723 475 114.202 475 97.9881V51.5263C475 35.0662 480.147 22.3717 490.449 13.4263C500.734 4.4727 520.664 0 540.536 0C545.511 0 550.674 0.147999 555.328 1.49638C561.397 3.25291 562.62 5.68491 564.081 8.59292ZM568.219 118.222C572.733 113.799 574.994 106.218 574.994 95.4475L574.986 95.4557C574.986 95.4557 574.55 63.1439 575.833 54.5356C579.09 32.6826 576.033 30.4275 571.29 26.9281L571.187 26.8526C557.926 17.0768 526.206 20.3656 512.812 31.3664C507.871 35.428 505.709 43.0579 505.709 54.0752V95.4475C505.709 106.218 507.97 113.799 512.483 118.222C516.997 122.645 529.503 124.849 540.347 124.849C551.192 124.849 563.706 122.645 568.219 118.222ZM389.324 118.327C395.281 137.681 402.621 146 402.621 146H402.63H445V2H418.381V114.493C418.381 114.493 416.091 108.412 410.662 102.389C407.418 98.7907 404.779 96.6956 402.33 94.7512C397.514 90.9279 393.431 87.687 386.927 74.7488C383.06 67.062 381.881 60.3736 380.712 53.7407C379.635 47.6284 378.566 41.5633 375.41 34.8073C369.601 22.3739 356.552 2 356.552 2H314V146H340.792V33.861C340.792 33.861 344.771 45.6361 353.907 55.7984C358.542 60.9553 363.29 64.2026 367.608 67.1561C372.861 70.7486 377.478 73.9065 380.484 79.5378C384.18 86.4554 384.938 92.7731 385.789 99.867C386.447 105.346 387.159 111.288 389.324 118.327ZM216.348 148.349C194.915 148.349 174.626 143.93 165.176 135.075C155.725 126.221 151 112.528 151 93.9641V2H181.706V91.4319C181.706 102.996 183.754 111.189 187.851 116.012C191.947 120.834 204.671 123.237 216.364 123.237C228.056 123.237 240.764 120.834 244.877 116.012C248.973 111.189 251.021 102.996 251.021 91.4319V2H281.728V93.9641C281.728 112.512 277.002 126.221 267.552 135.075C258.085 143.93 237.813 148.349 216.38 148.349H216.348ZM16.5505 136.746C30.7663 144.094 46.0081 146.913 59.2823 147C59.2815 147 59.2808 147 59.2801 147H59.2853C59.2843 147 59.2833 147 59.2823 147C67.7907 146.924 73.6869 146.598 79.5437 145.677C87.3586 144.449 94.8841 142.337 101.878 138.564C110.577 133.869 117.408 127.382 121.113 118.035C124.42 109.699 124.584 101.049 123.118 92.3474C121.897 85.0944 118.558 78.9616 112.89 74.1044C106.883 68.9579 100.234 67.0802 92.5265 69.3786C90.0524 70.1163 87.555 70.7828 85.058 71.4492C84.0921 71.707 83.1262 71.9648 82.1618 72.2267C76.394 73.7914 71.3524 72.5844 67.1187 68.2873C65.6425 66.7909 64.2374 65.2288 62.9849 63.5457C59.9537 59.4695 56.1962 56.6083 51.0415 55.6773C49.0323 55.3139 47.0735 54.6145 45.1297 53.9205C44.8512 53.821 44.5729 53.7217 44.2948 53.6235C41.4662 52.6241 38.8296 51.2514 36.9088 48.8372C32.4251 43.2042 33.8697 33.487 39.8585 28.9795C42.5556 26.9493 45.6263 25.7054 48.897 24.998C58.0565 23.0151 67.1871 23.6279 76.2414 25.6502C87.3218 28.1248 97.2444 33.1425 106.336 39.8538C107.256 40.5323 107.493 40.3114 107.912 39.4172C110.667 33.5317 113.445 27.6594 116.29 21.8186C116.719 20.9402 116.584 20.4721 115.956 19.8225C110.793 14.4946 104.675 10.5919 97.9206 7.62551C84.33 1.65322 70.0631 -0.545303 55.3068 0.112148C47.8997 0.440874 40.6031 1.50332 33.5697 3.96744C21.8104 8.08835 12.8088 15.436 7.46461 26.8099C3.35979 35.5383 2.89142 44.7426 4.62544 54.1257C6.42788 63.8902 11.8299 70.9197 20.5895 75.5876C31.0405 81.1565 45.9993 83.7402 59.1919 86.0188C67.1875 87.3998 74.5344 88.6688 79.8357 90.4223C85.2062 92.2001 91.3345 96.321 92.637 99.9028C94.7683 105.762 92.2949 115.453 83.8853 119.676C79.5437 121.856 74.8784 122.79 70.1052 123.014C60.1668 123.476 50.3231 122.635 40.6926 120.01C29.8569 117.057 20.2448 111.74 11.5984 104.642C10.6195 103.837 10.2748 103.968 9.73015 105.044C6.6147 111.193 3.44662 117.312 0.257493 123.424C-0.160883 124.223 -0.0819441 124.704 0.586405 125.33C5.40431 129.843 10.6827 133.714 16.5505 136.746Z" fill="#FFFFFF"/>
</svg>
