<svg width="606" height="149" viewBox="0 0 606 149" fill="none" xmlns="http://www.w3.org/2000/svg">
<path fill-rule="evenodd" clip-rule="evenodd" d="M490.576 135.564C500.801 144.393 520.702 148.816 540.571 148.816H540.587C560.472 148.816 580.357 144.393 590.598 135.564C600.822 126.735 605.951 114.212 605.951 97.9954V51.533C605.951 35.0898 600.855 22.3888 590.678 13.43C580.502 4.47127 560.633 0 540.764 0C520.896 0 500.962 4.47127 490.673 13.43C480.368 22.3726 475.223 35.0736 475.223 51.533V97.9954C475.223 114.212 480.336 126.735 490.576 135.564ZM568.439 118.229C563.923 122.652 551.408 124.855 540.571 124.855C529.733 124.855 517.219 122.652 512.703 118.229C508.187 113.807 505.93 106.225 505.93 95.4519V54.0765C505.93 43.0603 508.187 35.2842 512.703 30.7481C517.219 26.212 529.733 23.944 540.571 23.944C551.408 23.944 563.923 26.1958 568.439 30.7481C572.954 35.3004 575.212 43.0765 575.212 54.0765V95.4519C575.212 106.225 572.954 113.807 568.439 118.229ZM61.8037 147.985C49.882 147.985 38.5605 146.151 27.831 142.484C17.1015 138.817 7.82721 133.144 0 125.457L10.6638 104.746C18.3759 111.225 26.6553 116.1 35.5102 119.332C44.3651 122.579 54.4533 124.191 65.7748 124.191C74.8107 124.191 81.6841 122.563 86.3788 119.332C91.0735 116.084 93.4249 111.406 93.4249 105.28C93.4249 99.7636 90.6789 95.7596 85.1949 93.3012C79.7109 90.8429 68.1099 88.1133 50.4164 85.1041C33.4301 82.4731 21.4508 78.1813 14.4623 72.2286C7.48191 66.2842 3.9794 57.3717 3.9794 45.4747C3.9794 32.624 8.80564 21.9684 18.4334 13.5082C28.0859 5.06431 42.1864 0.821833 60.7349 0.821833C71.9495 0.821833 82.6296 2.65531 92.8083 6.32225C102.987 9.9892 111.036 15.0539 116.939 21.5491L107.534 41.3556C100.307 35.888 92.7343 31.736 84.8496 28.8748C76.9648 26.03 68.7347 24.5994 60.184 24.5994C52.2252 24.5994 45.9684 26.0136 41.3888 28.8419C36.8093 31.6702 34.5154 36.0443 34.5154 41.964C34.5154 47.5137 37.319 51.5013 42.9181 53.9103C48.509 56.3194 60.3484 59.1066 78.4201 62.2391C89.1227 65.3597 89.8575 70.0972 90.7297 75.7202C91.4408 80.3046 92.2432 85.4775 98.6129 90.8429C103.016 94.5546 107.736 95.6695 111.958 96.6667C116.264 97.684 120.052 98.5788 122.456 101.984C129.017 111.282 118.633 128.145 107.616 136.071C96.5986 143.997 81.3224 147.952 61.8037 147.952V147.985ZM165.465 135.537C174.912 144.392 195.203 148.807 216.638 148.807H216.671C227.384 148.807 238.269 147.714 244.666 144.573C250.326 141.786 252.158 139.14 254.044 136.417C255.061 134.947 256.095 133.454 257.755 131.903C260.087 129.718 262.975 128.566 265.92 127.391C269.868 125.815 273.918 124.199 276.871 119.998C280.628 114.645 282.018 102.255 282.018 94.4278V2.46639H251.309C251.309 2.46639 249.361 58.9999 251.309 91.8955C251.431 93.9442 251.571 95.8227 251.7 97.5602C252.53 108.73 252.927 114.072 245.357 121.33C235.571 128.673 226.706 126.883 213.702 124.257L213.702 124.257C212.175 123.949 210.591 123.629 208.942 123.311C207.271 122.988 205.62 122.715 204.015 122.449L204.015 122.449C197.329 121.341 191.434 120.364 188.133 116.479C184.038 111.653 181.991 103.464 181.991 91.8955V2.46639H151.282V94.4278C151.282 112.993 156.01 126.682 165.457 135.537H165.465ZM339.78 33.861L401.582 146L401.591 145.992H443.942C443.942 145.992 444.008 113.917 444.008 95.3367C444.008 73.0813 439.246 63.3193 435.288 55.2067C432.482 49.4555 430.08 44.5332 430.067 36.5765C430.048 26.0175 434.469 19.926 438.325 14.613C441.302 10.5106 443.942 6.87234 443.942 2H417.336V114.493L355.533 2H313V146H339.78V33.861Z" fill="#FFFFFF"/>
</svg>
